Coordinates
version=1
nRows=7
nColumns=40
inDegrees=yes

Units are S.I. units (second, meters, Newtons, ...)
If the header above contains a line with 'inDegrees', this indicates whether rotational values are in degrees (yes) or radians (no).

endheader
time	pelvis_tilt	pelvis_list	pelvis_rotation	pelvis_tx	pelvis_ty	pelvis_tz	hip_flexion_r	hip_adduction_r	hip_rotation_r	knee_angle_r	knee_angle_r_beta	ankle_angle_r	subtalar_angle_r	mtp_angle_r	hip_flexion_l	hip_adduction_l	hip_rotation_l	knee_angle_l	knee_angle_l_beta	ankle_angle_l	subtalar_angle_l	mtp_angle_l	lumbar_extension	lumbar_bending	lumbar_rotation	arm_flex_r	arm_add_r	arm_rot_r	elbow_flex_r	pro_sup_r	wrist_flex_r	wrist_dev_r	arm_flex_l	arm_add_l	arm_rot_l	elbow_flex_l	pro_sup_l	wrist_flex_l	wrist_dev_l
      6.35500000	     -1.89668075	     -0.42583478	     -0.91921235	     -0.28206446	      1.22419796	     -0.90287850	      4.20226574	     -6.53029739	    -21.62743594	      2.23155942	      0.03894806	    -39.32180867	      0.00000000	      0.00000000	      2.27761988	     -9.65550395	    -19.17345525	      2.53365403	      0.04422060	    -37.83320026	      0.00000000	      0.00000000	     -6.35747757	      0.83572686	      4.21965195	     20.72141691	    -40.62229938	     88.35018802	     73.86951686	     87.81570298	      0.00000000	      0.00000000	     24.03966054	    -41.18341329	     89.26800355	     77.48837963	     88.13440989	      0.00000000	      0.00000000
      6.36000000	     -2.06309344	     -0.40996581	     -1.11066563	     -0.28239161	      1.23316479	     -0.90285210	      4.85247305	     -6.65729476	    -22.46149627	      3.50572511	      0.06118645	    -39.34908662	      0.00000000	      0.00000000	      2.66652169	     -9.59902441	    -18.86798165	      3.38470705	      0.05907428	    -37.87183634	      0.00000000	      0.00000000	     -6.12245307	      0.80394250	      4.47674750	     20.56287893	    -40.63756248	     88.24409538	     73.73702833	     87.79806197	      0.00000000	      0.00000000	     24.10369493	    -41.02572867	     89.26836008	     77.10654180	     88.12334695	      0.00000000	      0.00000000
      6.36500000	     -1.88205662	     -0.47283892	     -1.29001821	     -0.28284347	      1.24216672	     -0.90268681	      4.98249381	     -6.65849601	    -22.52688717	      4.47428653	      0.07809103	    -39.38647543	      0.00000000	      0.00000000	      2.69646070	     -9.63304851	    -18.47870931	      4.25781517	      0.07431289	    -38.06785865	      0.00000000	      0.00000000	     -6.33930320	      0.83488483	      4.66180806	     20.62373978	    -40.59856683	     88.24136078	     73.57620566	     87.79374822	      0.00000000	      0.00000000	     24.19740874	    -40.98636640	     89.25762162	     76.96730438	     88.12207612	      0.00000000	      0.00000000
      6.37000000	     -1.83560568	     -0.36727602	     -1.48759126	     -0.28332358	      1.25067765	     -0.90244336	      5.37225066	     -6.90351942	    -23.17430626	      5.63204454	      0.09829772	    -39.38745351	      0.00000000	      0.00000000	      2.92890900	     -9.50053913	    -18.41799934	      5.23668655	      0.09139742	    -37.97528396	      0.00000000	      0.00000000	     -6.39192910	      0.64972632	      4.85280213	     20.60824977	    -40.52193391	     88.21227947	     73.39492944	     87.78973840	      0.00000000	      0.00000000	     24.25523760	    -40.98707599	     89.25477854	     76.87203060	     88.12354778	      0.00000000	      0.00000000
      6.37500000	     -1.58931133	     -0.37038440	     -1.59757527	     -0.28399452	      1.25907105	     -0.90204970	      5.40972104	     -6.97718253	    -23.51747582	      6.47755120	      0.11305460	    -39.38393417	      0.00000000	      0.00000000	      2.99500450	     -9.48333709	    -17.83016566	      6.30562303	      0.11005388	    -38.21673280	      0.00000000	      0.00000000	     -6.70974675	      0.57014561	      4.99757638	     20.62042884	    -40.43398014	     88.23519994	     73.25236982	     87.78512224	      0.00000000	      0.00000000	     24.41232965	    -40.99941641	     89.24982041	     76.85336300	     88.11466242	      0.00000000	      0.00000000
      6.38000000	     -1.22538590	     -0.26680962	     -1.76262007	     -0.28460327	      1.26734206	     -0.90157370	      5.22653073	     -7.12988100	    -23.54087662	      7.02620452	      0.12263040	    -39.39250777	      0.00000000	      0.00000000	      2.83314174	     -9.33078997	    -17.50790635	      7.06212604	      0.12325735	    -38.40322659	      0.00000000	      0.00000000	     -7.14675891	      0.34297222	      5.16488322	     20.72019650	    -40.31764205	     88.25240349	     73.04798572	     87.78081845	      0.00000000	      0.00000000	     24.55461942	    -41.02298041	     89.24952509	     76.86102711	     88.11310344	      0.00000000	      0.00000000
      6.38500000	     -0.84477528	     -0.17688587	     -1.87453265	     -0.28502521	      1.27532964	     -0.90107283	      4.98946995	     -7.27093623	    -23.74171026	      7.47115411	      0.13039624	    -39.38228098	      0.00000000	      0.00000000	      2.65323792	     -9.20825811	    -17.22642605	      7.79984175	      0.13613292	    -38.42536135	      0.00000000	      0.00000000	     -7.61196644	      0.14163531	      5.28762660	     20.76602084	    -40.19905825	     88.26970951	     72.93153848	     87.78166828	      0.00000000	      0.00000000	     24.66940070	    -41.10677241	     89.22298948	     76.93564021	     88.10907433	      0.00000000	      0.00000000
